<mxfile host="app.diagrams.net" modified="2022-04-14T07:33:52.122Z" agent="5.0 (Windows NT 10.0; Win64; x64) AppleWebKit/537.36 (KHTML, like Gecko) Chrome/100.0.4896.75 Safari/537.36" etag="vBUz5yRCeEr1P_vnnp1d" version="17.4.3" type="github">
  <diagram id="kqKvoktpGM-moFsywYsb" name="Page-1">
    <mxGraphModel dx="2249" dy="754" grid="1" gridSize="10" guides="1" tooltips="1" connect="1" arrows="1" fold="1" page="1" pageScale="1" pageWidth="827" pageHeight="1169" math="0" shadow="0">
      <root>
        <mxCell id="0" />
        <mxCell id="1" parent="0" />
        <mxCell id="KGkONfX1P129ByNGawEK-56" value="" style="rounded=0;whiteSpace=wrap;html=1;fontSize=16;fontColor=#333333;strokeColor=#666666;strokeWidth=2;fillColor=#f5f5f5;" vertex="1" parent="1">
          <mxGeometry y="40" width="680" height="640" as="geometry" />
        </mxCell>
        <mxCell id="KGkONfX1P129ByNGawEK-52" value="" style="rounded=0;whiteSpace=wrap;html=1;fontSize=12;fillColor=#fff2cc;strokeColor=#d6b656;" vertex="1" parent="1">
          <mxGeometry x="300" y="80" width="320" height="560" as="geometry" />
        </mxCell>
        <mxCell id="KGkONfX1P129ByNGawEK-33" value="enqueue" style="html=1;outlineConnect=0;whiteSpace=wrap;fillColor=#99ffff;shape=mxgraph.archimate3.application;appType=func;archiType=rounded;fontSize=16;" vertex="1" parent="1">
          <mxGeometry x="40" y="280" width="160" height="240" as="geometry" />
        </mxCell>
        <mxCell id="KGkONfX1P129ByNGawEK-1" value="&lt;font style=&quot;font-size: 16px&quot;&gt;t0&lt;/font&gt;" style="rounded=0;whiteSpace=wrap;html=1;" vertex="1" parent="1">
          <mxGeometry x="360" y="200" width="40" height="40" as="geometry" />
        </mxCell>
        <mxCell id="KGkONfX1P129ByNGawEK-2" value="&lt;font style=&quot;font-size: 16px&quot;&gt;t1&lt;/font&gt;" style="rounded=0;whiteSpace=wrap;html=1;" vertex="1" parent="1">
          <mxGeometry x="400" y="200" width="40" height="40" as="geometry" />
        </mxCell>
        <mxCell id="KGkONfX1P129ByNGawEK-3" value="&lt;font style=&quot;font-size: 16px&quot;&gt;t2&lt;/font&gt;" style="rounded=0;whiteSpace=wrap;html=1;" vertex="1" parent="1">
          <mxGeometry x="440" y="200" width="40" height="40" as="geometry" />
        </mxCell>
        <mxCell id="KGkONfX1P129ByNGawEK-4" value="..." style="rounded=0;whiteSpace=wrap;html=1;" vertex="1" parent="1">
          <mxGeometry x="480" y="200" width="40" height="40" as="geometry" />
        </mxCell>
        <mxCell id="KGkONfX1P129ByNGawEK-6" value="" style="shape=curlyBracket;whiteSpace=wrap;html=1;rounded=1;flipH=1;rotation=-90;" vertex="1" parent="1">
          <mxGeometry x="450" y="80" width="20" height="200" as="geometry" />
        </mxCell>
        <mxCell id="KGkONfX1P129ByNGawEK-7" value="&lt;font style=&quot;font-size: 16px&quot;&gt;Tn-1&lt;/font&gt;" style="rounded=0;whiteSpace=wrap;html=1;" vertex="1" parent="1">
          <mxGeometry x="520" y="200" width="40" height="40" as="geometry" />
        </mxCell>
        <mxCell id="KGkONfX1P129ByNGawEK-8" value="" style="html=1;verticalLabelPosition=bottom;align=center;labelBackgroundColor=#ffffff;verticalAlign=top;strokeWidth=2;strokeColor=#0080F0;shadow=0;dashed=0;shape=mxgraph.ios7.icons.locked;" vertex="1" parent="1">
          <mxGeometry x="440" y="320" width="40" height="40" as="geometry" />
        </mxCell>
        <mxCell id="KGkONfX1P129ByNGawEK-13" value="" style="outlineConnect=0;dashed=0;verticalLabelPosition=bottom;verticalAlign=top;align=center;html=1;shape=mxgraph.aws3.queue;fillColor=#D9A741;gradientColor=none;fontSize=16;" vertex="1" parent="1">
          <mxGeometry x="400" y="380" width="120" height="40" as="geometry" />
        </mxCell>
        <mxCell id="KGkONfX1P129ByNGawEK-14" value="workers" style="text;html=1;strokeColor=none;fillColor=none;align=center;verticalAlign=middle;whiteSpace=wrap;rounded=0;fontSize=16;" vertex="1" parent="1">
          <mxGeometry x="430" y="130" width="60" height="30" as="geometry" />
        </mxCell>
        <mxCell id="KGkONfX1P129ByNGawEK-15" value="" style="endArrow=classic;html=1;rounded=0;fontSize=16;exitX=0.5;exitY=1;exitDx=0;exitDy=0;" edge="1" parent="1" source="KGkONfX1P129ByNGawEK-1">
          <mxGeometry width="50" height="50" relative="1" as="geometry">
            <mxPoint x="390" y="480" as="sourcePoint" />
            <mxPoint x="440" y="310" as="targetPoint" />
          </mxGeometry>
        </mxCell>
        <mxCell id="KGkONfX1P129ByNGawEK-16" value="" style="endArrow=classic;html=1;rounded=0;fontSize=16;exitX=0.5;exitY=1;exitDx=0;exitDy=0;" edge="1" parent="1" source="KGkONfX1P129ByNGawEK-2">
          <mxGeometry width="50" height="50" relative="1" as="geometry">
            <mxPoint x="500" y="530" as="sourcePoint" />
            <mxPoint x="450" y="310" as="targetPoint" />
          </mxGeometry>
        </mxCell>
        <mxCell id="KGkONfX1P129ByNGawEK-17" value="" style="endArrow=classic;html=1;rounded=0;fontSize=16;exitX=0.5;exitY=1;exitDx=0;exitDy=0;" edge="1" parent="1" source="KGkONfX1P129ByNGawEK-3">
          <mxGeometry width="50" height="50" relative="1" as="geometry">
            <mxPoint x="470" y="540" as="sourcePoint" />
            <mxPoint x="460" y="310" as="targetPoint" />
          </mxGeometry>
        </mxCell>
        <mxCell id="KGkONfX1P129ByNGawEK-18" value="" style="endArrow=classic;html=1;rounded=0;fontSize=16;exitX=0.5;exitY=1;exitDx=0;exitDy=0;" edge="1" parent="1" source="KGkONfX1P129ByNGawEK-4">
          <mxGeometry width="50" height="50" relative="1" as="geometry">
            <mxPoint x="600" y="560" as="sourcePoint" />
            <mxPoint x="470" y="310" as="targetPoint" />
          </mxGeometry>
        </mxCell>
        <mxCell id="KGkONfX1P129ByNGawEK-19" value="" style="endArrow=classic;html=1;rounded=0;fontSize=16;exitX=0.5;exitY=1;exitDx=0;exitDy=0;" edge="1" parent="1" source="KGkONfX1P129ByNGawEK-7">
          <mxGeometry width="50" height="50" relative="1" as="geometry">
            <mxPoint x="370" y="540" as="sourcePoint" />
            <mxPoint x="480" y="310" as="targetPoint" />
          </mxGeometry>
        </mxCell>
        <mxCell id="KGkONfX1P129ByNGawEK-20" value="" style="shape=image;html=1;verticalAlign=top;verticalLabelPosition=bottom;labelBackgroundColor=#ffffff;imageAspect=0;aspect=fixed;image=https://cdn2.iconfinder.com/data/icons/LinspireClear/22x22/actions/queue.png;fontSize=16;" vertex="1" parent="1">
          <mxGeometry x="369" y="519" width="22" height="22" as="geometry" />
        </mxCell>
        <mxCell id="KGkONfX1P129ByNGawEK-21" value="" style="shape=image;html=1;verticalAlign=top;verticalLabelPosition=bottom;labelBackgroundColor=#ffffff;imageAspect=0;aspect=fixed;image=https://cdn2.iconfinder.com/data/icons/LinspireClear/22x22/actions/queue.png;fontSize=16;" vertex="1" parent="1">
          <mxGeometry x="408" y="519" width="22" height="22" as="geometry" />
        </mxCell>
        <mxCell id="KGkONfX1P129ByNGawEK-22" value="" style="shape=image;html=1;verticalAlign=top;verticalLabelPosition=bottom;labelBackgroundColor=#ffffff;imageAspect=0;aspect=fixed;image=https://cdn2.iconfinder.com/data/icons/LinspireClear/22x22/actions/queue.png;fontSize=16;" vertex="1" parent="1">
          <mxGeometry x="448" y="519" width="22" height="22" as="geometry" />
        </mxCell>
        <mxCell id="KGkONfX1P129ByNGawEK-23" value="" style="shape=image;html=1;verticalAlign=top;verticalLabelPosition=bottom;labelBackgroundColor=#ffffff;imageAspect=0;aspect=fixed;image=https://cdn2.iconfinder.com/data/icons/LinspireClear/22x22/actions/queue.png;fontSize=16;" vertex="1" parent="1">
          <mxGeometry x="489" y="519" width="22" height="22" as="geometry" />
        </mxCell>
        <mxCell id="KGkONfX1P129ByNGawEK-24" value="" style="shape=image;html=1;verticalAlign=top;verticalLabelPosition=bottom;labelBackgroundColor=#ffffff;imageAspect=0;aspect=fixed;image=https://cdn2.iconfinder.com/data/icons/LinspireClear/22x22/actions/queue.png;fontSize=16;" vertex="1" parent="1">
          <mxGeometry x="529" y="519" width="22" height="22" as="geometry" />
        </mxCell>
        <mxCell id="KGkONfX1P129ByNGawEK-25" value="" style="endArrow=classic;html=1;rounded=0;fontSize=16;" edge="1" parent="1">
          <mxGeometry width="50" height="50" relative="1" as="geometry">
            <mxPoint x="440" y="440" as="sourcePoint" />
            <mxPoint x="380" y="510" as="targetPoint" />
          </mxGeometry>
        </mxCell>
        <mxCell id="KGkONfX1P129ByNGawEK-26" value="" style="endArrow=classic;html=1;rounded=0;fontSize=16;" edge="1" parent="1">
          <mxGeometry width="50" height="50" relative="1" as="geometry">
            <mxPoint x="450" y="440" as="sourcePoint" />
            <mxPoint x="420" y="510" as="targetPoint" />
          </mxGeometry>
        </mxCell>
        <mxCell id="KGkONfX1P129ByNGawEK-27" value="" style="endArrow=classic;html=1;rounded=0;fontSize=16;" edge="1" parent="1">
          <mxGeometry width="50" height="50" relative="1" as="geometry">
            <mxPoint x="460" y="440" as="sourcePoint" />
            <mxPoint x="460" y="510" as="targetPoint" />
          </mxGeometry>
        </mxCell>
        <mxCell id="KGkONfX1P129ByNGawEK-28" value="" style="endArrow=classic;html=1;rounded=0;fontSize=16;" edge="1" parent="1">
          <mxGeometry width="50" height="50" relative="1" as="geometry">
            <mxPoint x="470" y="440" as="sourcePoint" />
            <mxPoint x="500" y="510" as="targetPoint" />
          </mxGeometry>
        </mxCell>
        <mxCell id="KGkONfX1P129ByNGawEK-29" value="" style="endArrow=classic;html=1;rounded=0;fontSize=16;" edge="1" parent="1">
          <mxGeometry width="50" height="50" relative="1" as="geometry">
            <mxPoint x="480" y="440" as="sourcePoint" />
            <mxPoint x="540" y="510" as="targetPoint" />
          </mxGeometry>
        </mxCell>
        <mxCell id="KGkONfX1P129ByNGawEK-31" value="" style="shape=image;html=1;verticalAlign=top;verticalLabelPosition=bottom;labelBackgroundColor=#ffffff;imageAspect=0;aspect=fixed;image=https://cdn2.iconfinder.com/data/icons/LinspireClear/22x22/actions/queue.png;fontSize=16;" vertex="1" parent="1">
          <mxGeometry x="320" y="389" width="22" height="22" as="geometry" />
        </mxCell>
        <mxCell id="KGkONfX1P129ByNGawEK-32" value="" style="endArrow=classic;html=1;rounded=0;fontSize=16;" edge="1" parent="1">
          <mxGeometry width="50" height="50" relative="1" as="geometry">
            <mxPoint x="340" y="400" as="sourcePoint" />
            <mxPoint x="380" y="400" as="targetPoint" />
          </mxGeometry>
        </mxCell>
        <mxCell id="KGkONfX1P129ByNGawEK-34" value="" style="endArrow=classic;html=1;rounded=0;fontSize=16;dashed=1;" edge="1" parent="1">
          <mxGeometry width="50" height="50" relative="1" as="geometry">
            <mxPoint x="200" y="400" as="sourcePoint" />
            <mxPoint x="310" y="400" as="targetPoint" />
          </mxGeometry>
        </mxCell>
        <mxCell id="KGkONfX1P129ByNGawEK-49" value="&lt;font style=&quot;font-size: 12px&quot; color=&quot;#ea6b66&quot;&gt;&lt;i&gt;task封装入队&lt;/i&gt;&lt;/font&gt;" style="edgeLabel;html=1;align=center;verticalAlign=middle;resizable=0;points=[];fontSize=16;" vertex="1" connectable="0" parent="KGkONfX1P129ByNGawEK-34">
          <mxGeometry x="0.1818" y="-2" relative="1" as="geometry">
            <mxPoint x="-5" y="-2" as="offset" />
          </mxGeometry>
        </mxCell>
        <mxCell id="KGkONfX1P129ByNGawEK-35" value="fn" style="shape=mxgraph.electrical.abstract.function;html=1;shadow=0;dashed=0;align=center;strokeWidth=1;fontSize=24" vertex="1" parent="1">
          <mxGeometry x="-100" y="375" width="50" height="50" as="geometry" />
        </mxCell>
        <mxCell id="KGkONfX1P129ByNGawEK-36" value="" style="endArrow=classic;html=1;rounded=0;fontSize=16;entryX=0;entryY=0.5;entryDx=0;entryDy=0;entryPerimeter=0;startArrow=classic;startFill=1;" edge="1" parent="1" target="KGkONfX1P129ByNGawEK-33">
          <mxGeometry width="50" height="50" relative="1" as="geometry">
            <mxPoint x="-50" y="400" as="sourcePoint" />
            <mxPoint x="-70" y="540" as="targetPoint" />
          </mxGeometry>
        </mxCell>
        <mxCell id="KGkONfX1P129ByNGawEK-37" value="" style="endArrow=classic;html=1;rounded=0;fontSize=16;exitX=1;exitY=0.5;exitDx=0;exitDy=0;exitPerimeter=0;dashed=1;" edge="1" parent="1" source="KGkONfX1P129ByNGawEK-33">
          <mxGeometry width="50" height="50" relative="1" as="geometry">
            <mxPoint x="270" y="560" as="sourcePoint" />
            <mxPoint x="350" y="240" as="targetPoint" />
          </mxGeometry>
        </mxCell>
        <mxCell id="KGkONfX1P129ByNGawEK-50" value="通知唤醒线程解锁" style="edgeLabel;html=1;align=center;verticalAlign=middle;resizable=0;points=[];fontSize=12;fontColor=#EA6B66;" vertex="1" connectable="0" parent="KGkONfX1P129ByNGawEK-37">
          <mxGeometry x="0.4037" y="-2" relative="1" as="geometry">
            <mxPoint as="offset" />
          </mxGeometry>
        </mxCell>
        <mxCell id="KGkONfX1P129ByNGawEK-38" value="" style="endArrow=classic;html=1;rounded=0;fontSize=16;dashed=1;" edge="1" parent="1">
          <mxGeometry width="50" height="50" relative="1" as="geometry">
            <mxPoint x="360" y="600" as="sourcePoint" />
            <mxPoint x="200" y="400" as="targetPoint" />
          </mxGeometry>
        </mxCell>
        <mxCell id="KGkONfX1P129ByNGawEK-51" value="获取返回值" style="edgeLabel;html=1;align=center;verticalAlign=middle;resizable=0;points=[];fontSize=12;fontColor=#EA6B66;" vertex="1" connectable="0" parent="KGkONfX1P129ByNGawEK-38">
          <mxGeometry x="-0.1439" y="-1" relative="1" as="geometry">
            <mxPoint y="1" as="offset" />
          </mxGeometry>
        </mxCell>
        <mxCell id="KGkONfX1P129ByNGawEK-39" value="" style="endArrow=classic;html=1;rounded=0;fontSize=16;" edge="1" parent="1">
          <mxGeometry width="50" height="50" relative="1" as="geometry">
            <mxPoint x="380" y="560" as="sourcePoint" />
            <mxPoint x="380" y="580" as="targetPoint" />
          </mxGeometry>
        </mxCell>
        <mxCell id="KGkONfX1P129ByNGawEK-40" value="ret" style="rounded=0;whiteSpace=wrap;html=1;fontSize=16;" vertex="1" parent="1">
          <mxGeometry x="365" y="585" width="30" height="30" as="geometry" />
        </mxCell>
        <mxCell id="KGkONfX1P129ByNGawEK-41" value="" style="endArrow=classic;html=1;rounded=0;fontSize=16;" edge="1" parent="1">
          <mxGeometry width="50" height="50" relative="1" as="geometry">
            <mxPoint x="420" y="560" as="sourcePoint" />
            <mxPoint x="420" y="580" as="targetPoint" />
          </mxGeometry>
        </mxCell>
        <mxCell id="KGkONfX1P129ByNGawEK-42" value="ret" style="rounded=0;whiteSpace=wrap;html=1;fontSize=16;" vertex="1" parent="1">
          <mxGeometry x="405" y="585" width="30" height="30" as="geometry" />
        </mxCell>
        <mxCell id="KGkONfX1P129ByNGawEK-43" value="" style="endArrow=classic;html=1;rounded=0;fontSize=16;" edge="1" parent="1">
          <mxGeometry width="50" height="50" relative="1" as="geometry">
            <mxPoint x="460" y="560" as="sourcePoint" />
            <mxPoint x="460" y="580" as="targetPoint" />
          </mxGeometry>
        </mxCell>
        <mxCell id="KGkONfX1P129ByNGawEK-44" value="ret" style="rounded=0;whiteSpace=wrap;html=1;fontSize=16;" vertex="1" parent="1">
          <mxGeometry x="445" y="585" width="30" height="30" as="geometry" />
        </mxCell>
        <mxCell id="KGkONfX1P129ByNGawEK-45" value="" style="endArrow=classic;html=1;rounded=0;fontSize=16;" edge="1" parent="1">
          <mxGeometry width="50" height="50" relative="1" as="geometry">
            <mxPoint x="504" y="560" as="sourcePoint" />
            <mxPoint x="504" y="580" as="targetPoint" />
          </mxGeometry>
        </mxCell>
        <mxCell id="KGkONfX1P129ByNGawEK-46" value="ret" style="rounded=0;whiteSpace=wrap;html=1;fontSize=16;" vertex="1" parent="1">
          <mxGeometry x="489" y="585" width="30" height="30" as="geometry" />
        </mxCell>
        <mxCell id="KGkONfX1P129ByNGawEK-47" value="" style="endArrow=classic;html=1;rounded=0;fontSize=16;" edge="1" parent="1">
          <mxGeometry width="50" height="50" relative="1" as="geometry">
            <mxPoint x="544" y="560" as="sourcePoint" />
            <mxPoint x="544" y="580" as="targetPoint" />
          </mxGeometry>
        </mxCell>
        <mxCell id="KGkONfX1P129ByNGawEK-48" value="ret" style="rounded=0;whiteSpace=wrap;html=1;fontSize=16;" vertex="1" parent="1">
          <mxGeometry x="529" y="585" width="30" height="30" as="geometry" />
        </mxCell>
        <mxCell id="KGkONfX1P129ByNGawEK-53" value="" style="shape=image;html=1;verticalAlign=top;verticalLabelPosition=bottom;labelBackgroundColor=#ffffff;imageAspect=0;aspect=fixed;image=https://cdn4.iconfinder.com/data/icons/evil-icons-user-interface/64/download-128.png;fontSize=12;fontColor=#EA6B66;" vertex="1" parent="1">
          <mxGeometry x="570" y="200" width="40" height="40" as="geometry" />
        </mxCell>
        <mxCell id="KGkONfX1P129ByNGawEK-54" value="&lt;font style=&quot;font-size: 16px&quot;&gt;&lt;b&gt;构造函数&lt;/b&gt;&lt;/font&gt;" style="text;html=1;strokeColor=default;fillColor=none;align=center;verticalAlign=middle;whiteSpace=wrap;rounded=0;fontSize=12;fontColor=#EA6B66;strokeWidth=2;" vertex="1" parent="1">
          <mxGeometry x="300" y="80" width="100" height="30" as="geometry" />
        </mxCell>
        <mxCell id="KGkONfX1P129ByNGawEK-55" value="&lt;font style=&quot;font-size: 16px&quot;&gt;&lt;b&gt;入队函数&lt;/b&gt;&lt;/font&gt;" style="text;html=1;strokeColor=default;fillColor=none;align=center;verticalAlign=middle;whiteSpace=wrap;rounded=0;fontSize=12;fontColor=#EA6B66;strokeWidth=2;" vertex="1" parent="1">
          <mxGeometry x="70" y="280" width="100" height="30" as="geometry" />
        </mxCell>
        <mxCell id="KGkONfX1P129ByNGawEK-57" value="" style="rounded=0;whiteSpace=wrap;html=1;fontSize=16;strokeColor=#9673a6;strokeWidth=2;fillColor=#e1d5e7;" vertex="1" parent="1">
          <mxGeometry x="50" y="120" width="190" height="80" as="geometry" />
        </mxCell>
        <mxCell id="KGkONfX1P129ByNGawEK-58" value="" style="endArrow=classic;html=1;rounded=0;dashed=1;fontSize=16;fontColor=#EA6B66;exitX=0;exitY=0.5;exitDx=0;exitDy=0;entryX=1;entryY=0.5;entryDx=0;entryDy=0;" edge="1" parent="1" source="KGkONfX1P129ByNGawEK-1" target="KGkONfX1P129ByNGawEK-57">
          <mxGeometry width="50" height="50" relative="1" as="geometry">
            <mxPoint x="250" y="210" as="sourcePoint" />
            <mxPoint x="300" y="160" as="targetPoint" />
          </mxGeometry>
        </mxCell>
        <mxCell id="KGkONfX1P129ByNGawEK-60" value="join()" style="edgeLabel;html=1;align=center;verticalAlign=middle;resizable=0;points=[];fontSize=16;fontColor=#EA6B66;" vertex="1" connectable="0" parent="KGkONfX1P129ByNGawEK-58">
          <mxGeometry x="0.32" relative="1" as="geometry">
            <mxPoint as="offset" />
          </mxGeometry>
        </mxCell>
        <mxCell id="KGkONfX1P129ByNGawEK-59" value="&lt;font style=&quot;font-size: 16px&quot;&gt;&lt;b&gt;析构函数&lt;/b&gt;&lt;/font&gt;" style="text;html=1;strokeColor=default;fillColor=none;align=center;verticalAlign=middle;whiteSpace=wrap;rounded=0;fontSize=12;fontColor=#EA6B66;strokeWidth=2;" vertex="1" parent="1">
          <mxGeometry x="50" y="120" width="100" height="30" as="geometry" />
        </mxCell>
        <mxCell id="KGkONfX1P129ByNGawEK-61" value="&lt;font style=&quot;font-size: 16px&quot;&gt;&lt;b&gt;threadpool&lt;/b&gt;&lt;/font&gt;" style="text;html=1;strokeColor=default;fillColor=none;align=center;verticalAlign=middle;whiteSpace=wrap;rounded=0;fontSize=12;fontColor=#EA6B66;strokeWidth=2;" vertex="1" parent="1">
          <mxGeometry y="40" width="100" height="30" as="geometry" />
        </mxCell>
      </root>
    </mxGraphModel>
  </diagram>
</mxfile>
